<?xml version="1.0" ?><svg id="Layer_1" style="enable-background:new 0 0 700 700;" version="1.1" viewBox="0 0 700 700" xml:space="preserve" xmlns="http://www.w3.org/2000/svg" xmlns:xlink="http://www.w3.org/1999/xlink"><style type="text/css">
	.st0{fill:#F9809A;stroke:#000000;stroke-width:10;stroke-linecap:round;stroke-linejoin:round;stroke-miterlimit:10;}
	.st1{fill:#EFC4AC;stroke:#000000;stroke-width:10;stroke-linecap:round;stroke-linejoin:round;stroke-miterlimit:10;}
	.st2{fill:none;stroke:#000000;stroke-width:10;stroke-linecap:round;stroke-linejoin:round;stroke-miterlimit:10;}
</style><g><path class="st0" d="M381.7,543.99c0,33.18,26.87,60.05,60.05,60.05h13.37c33.18,0,60.05-26.87,60.05-60.05v-30.6l24.16,1.9   c33.05,2.51,61.95-22.26,64.46-55.3l1.02-13.37c2.58-33.05-22.19-61.89-55.24-64.46l-30.4-2.31   c-10.65-27.69-34.54-55.3-48.11-69.55l9.16-15c18.32-29.92,8.89-69.01-21.04-87.33c-10.31-6.31-21.71-9.3-33.05-9.3   c-21.37,0-42.27,10.79-54.22,30.4l-7.46,12.21l-29.52-1.49c9.09-23.07,2.65-50.28-17.64-66.64l-15.47-12.49   c-12.55-10.18-26.87-16.62-41.6-19.81v-6.24c0-19.34-14.18-36.64-33.45-38.47c-22.05-2.1-40.65,15.2-40.65,36.91v21.31   c-8.75,5.56-16.76,12.55-23.61,21.04l-1.49,1.83c-2.78,3.46-5.22,7.06-7.46,10.79l-13.64-2.38c-19.07-3.32-38.47,7.74-43.56,26.4   c-5.9,21.37,8.01,42.68,29.38,46.35l15.74,2.71c4.68,21.1,16.22,40.78,34.34,55.44l13.16,10.65   c15.34,12.42,34.81,16.22,52.66,12.01v21.85L227.4,371.9c-16.42,12.49-24.97,31.42-24.97,50.55c0,13.37,4.21,26.94,12.96,38.41   c21.31,27.89,61.14,33.25,89.03,11.94l6.65-5.09c17.1,16.83,45.94,41.8,70.64,47.57L381.7,543.99L381.7,543.99z"/><ellipse class="st1" cx="381.96" cy="383.82" rx="76.67" ry="118.11" transform="matrix(0.654 -0.7565 0.7565 0.654 -158.1985 421.7564)"/><path class="st2" d="M184.93,256.21c-7.06-5.11-8.65-14.98-3.54-22.04l0,0c5.11-7.06,14.98-8.65,22.04-3.54"/><path class="st2" d="M234.74,207.65c-7.06-5.11-8.65-14.98-3.54-22.04l0,0c5.11-7.06,14.98-8.65,22.04-3.54"/><path class="st2" d="M274.45,246.65c7.48,8.73,6.46,21.87-2.27,29.35l0,0c-8.73,7.48-21.87,6.46-29.35-2.27"/><path class="st2" d="M485.05,521.26v17.71c0,17.98-14.52,32.5-32.44,32.5c-8.96,0-17.1-3.66-23-9.5c-1.43-1.43-2.78-3.05-3.94-4.75   "/><path class="st2" d="M563.02,422.12l2.58,2.65c12.55,12.89,12.35,33.45-0.47,45.94c-6.45,6.24-14.79,9.36-23.14,9.3   c-1.97-0.07-4.07-0.27-6.11-0.68"/></g></svg>