<svg xmlns="http://www.w3.org/2000/svg"  viewBox="0 0 50 50" width="50px" height="50px"><path d="M 24.957031 6 C 21.277344 6 18.285156 7.070313 16.203125 8.882813 C 16.0625 9.007813 15.933594 9.144531 15.800781 9.273438 C 14.121094 7.835938 11.890625 7 9.46875 7 C 4.292969 7 0 10.96875 0 15.953125 C 0 20.949219 4.28125 25 9.46875 25 C 11.886719 25 14.085938 24.097656 15.75 22.675781 C 15.902344 22.824219 16.042969 22.976563 16.203125 23.117188 C 16.902344 23.722656 17.707031 24.238281 18.597656 24.667969 C 18.496094 24.855469 18.40625 25.066406 18.3125 25.269531 C 16.996094 25.671875 15.34375 26.503906 13.878906 27.730469 C 12.328125 29.027344 10.960938 30.808594 10.960938 33 C 10.960938 33.972656 11.542969 34.726563 12.207031 35.21875 C 12.871094 35.707031 13.667969 36 14.503906 36 C 15.535156 36 16.46875 35.492188 17.035156 34.710938 C 17.089844 36.035156 17.226563 37.195313 17.542969 38.199219 C 15.960938 38.59375 14.835938 39.546875 14.132813 40.503906 C 13.734375 41.046875 13.460938 41.59375 13.28125 42.074219 C 13.101563 42.554688 13 42.917969 13 43.339844 C 13 43.90625 13.3125 44.796875 14.105469 45.289063 C 14.898438 45.78125 15.996094 46 17.734375 46 C 19.21875 46 20.585938 45.921875 21.691406 45.644531 C 22.246094 45.507813 22.742188 45.332031 23.183594 45.003906 C 23.621094 44.675781 24 44.089844 24 43.460938 C 24 43.289063 23.984375 43.117188 23.964844 42.949219 C 24.292969 42.972656 24.621094 43 24.957031 43 C 25.324219 43 25.679688 42.972656 26.039063 42.941406 C 26.015625 43.117188 26 43.289063 26 43.460938 C 26 44.089844 26.378906 44.675781 26.816406 45.003906 C 27.257813 45.332031 27.753906 45.507813 28.308594 45.644531 C 29.414063 45.921875 30.777344 46 32.261719 46 C 34.003906 46 35.101563 45.78125 35.894531 45.289063 C 36.6875 44.796875 37 43.90625 37 43.339844 C 37 42.894531 36.890625 42.535156 36.699219 42.054688 C 36.503906 41.574219 36.21875 41.03125 35.808594 40.488281 C 35.085938 39.539063 33.945313 38.597656 32.371094 38.203125 C 32.699219 37.21875 32.867188 36.082031 32.945313 34.78125 C 33.515625 35.519531 34.417969 36 35.414063 36 C 36.25 36 37.046875 35.707031 37.710938 35.21875 C 38.375 34.730469 38.960938 33.972656 38.960938 33 C 38.960938 30.808594 37.59375 29.027344 36.039063 27.730469 C 34.5625 26.492188 32.890625 25.65625 31.574219 25.257813 C 31.476563 25.066406 31.390625 24.863281 31.292969 24.691406 C 32.207031 24.261719 33.035156 23.738281 33.75 23.121094 C 33.875 23.011719 33.988281 22.894531 34.105469 22.78125 C 35.757813 24.148438 37.910156 25 40.265625 25 C 45.464844 25 50 20.988281 50 15.953125 C 50 10.929688 45.453125 7 40.265625 7 C 37.90625 7 35.722656 7.796875 34.0625 9.179688 C 33.957031 9.078125 33.859375 8.972656 33.75 8.878906 C 31.652344 7.070313 28.640625 6 24.957031 6 Z M 24.957031 8 C 28.253906 8 30.765625 8.945313 32.441406 10.390625 C 34.121094 11.839844 35 13.785156 35 16 C 35 18.214844 34.121094 20.160156 32.441406 21.609375 C 30.765625 23.054688 28.257813 24 24.957031 24 C 21.660156 24 19.175781 23.054688 17.519531 21.609375 C 15.863281 20.167969 15 18.21875 15 16 C 15 13.78125 15.863281 11.832031 17.519531 10.390625 C 19.175781 8.945313 21.664063 8 24.957031 8 Z M 9.46875 9 C 11.453125 9 13.21875 9.683594 14.53125 10.820313 C 13.535156 12.339844 13 14.121094 13 16 C 13 17.855469 13.523438 19.613281 14.492188 21.121094 C 13.171875 22.265625 11.40625 23 9.46875 23 C 5.316406 23 2 19.804688 2 15.953125 C 2 12.117188 5.304688 9 9.46875 9 Z M 40.265625 9 C 44.441406 9 48 12.15625 48 15.953125 C 48 19.765625 44.433594 23 40.265625 23 C 38.398438 23 36.695313 22.324219 35.394531 21.25 C 36.433594 19.714844 37 17.910156 37 16 C 37 14.066406 36.421875 12.242188 35.359375 10.695313 C 36.648438 9.636719 38.363281 9 40.265625 9 Z M 21.128906 10.941406 C 19.796875 10.871094 18.851563 11.476563 18.851563 11.476563 C 18.542969 11.671875 18.363281 12.019531 18.382813 12.382813 C 18.40625 12.75 18.625 13.074219 18.953125 13.230469 C 19.285156 13.386719 19.675781 13.347656 19.96875 13.132813 C 19.96875 13.132813 20.410156 12.792969 21.320313 12.980469 C 21.863281 13.089844 22.390625 12.742188 22.5 12.203125 C 22.613281 11.660156 22.265625 11.128906 21.722656 11.019531 C 21.519531 10.976563 21.320313 10.953125 21.128906 10.941406 Z M 28.792969 10.941406 C 28.601563 10.953125 28.402344 10.976563 28.199219 11.019531 C 27.65625 11.128906 27.308594 11.660156 27.417969 12.199219 C 27.527344 12.742188 28.058594 13.089844 28.597656 12.980469 C 29.507813 12.792969 29.949219 13.132813 29.949219 13.132813 C 30.242188 13.339844 30.628906 13.371094 30.953125 13.214844 C 31.277344 13.058594 31.492188 12.738281 31.515625 12.378906 C 31.542969 12.019531 31.371094 11.675781 31.066406 11.476563 C 31.066406 11.476563 30.125 10.871094 28.792969 10.941406 Z M 20 15 C 18.894531 15 18 15.894531 18 17 C 18 18.105469 18.894531 19 20 19 C 21.105469 19 22 18.105469 22 17 C 22 16.660156 21.90625 16.339844 21.753906 16.0625 C 21.691406 16.53125 21.304688 16.898438 20.816406 16.898438 C 20.285156 16.898438 19.847656 16.464844 19.847656 15.933594 C 19.847656 15.535156 20.089844 15.199219 20.429688 15.046875 C 20.289063 15.019531 20.148438 15 20 15 Z M 30 15 C 28.894531 15 28 15.894531 28 17 C 28 18.105469 28.894531 19 30 19 C 31.105469 19 32 18.105469 32 17 C 32 16.660156 31.90625 16.339844 31.753906 16.0625 C 31.691406 16.53125 31.304688 16.898438 30.816406 16.898438 C 30.285156 16.898438 29.847656 16.464844 29.847656 15.933594 C 29.847656 15.535156 30.089844 15.199219 30.429688 15.046875 C 30.289063 15.019531 30.148438 15 30 15 Z M 24.957031 19 L 23.914063 20 L 26.003906 20 Z M 22.867188 21 C 22.867188 21 23.945313 23 24.957031 23 C 25.972656 23 27.050781 21 27.050781 21 Z M 20.496094 25.386719 C 20.742188 25.460938 20.992188 25.53125 21.25 25.59375 C 20.515625 26.597656 20 27.902344 20 29.445313 C 20 31.222656 20.519531 32.652344 21.457031 33.613281 C 22.394531 34.574219 23.6875 35 25 35 C 26.3125 35 27.605469 34.570313 28.542969 33.609375 C 29.480469 32.648438 30 31.21875 30 29.445313 C 30 27.894531 29.476563 26.585938 28.738281 25.578125 C 28.960938 25.527344 29.171875 25.464844 29.382813 25.402344 C 29.609375 25.773438 29.820313 26.148438 29.972656 26.527344 C 30.261719 27.261719 30.507813 28.089844 30.695313 28.984375 L 30.699219 29 C 30.929688 30.183594 31 31.511719 31 33 C 31 35.664063 30.679688 37.449219 30.035156 38.558594 C 29.109375 40.160156 27.9375 40.738281 26.175781 40.9375 L 26.171875 40.9375 C 25.789063 40.980469 25.390625 41 24.957031 41 C 24.527344 41 24.128906 40.980469 23.746094 40.9375 L 23.742188 40.9375 C 21.980469 40.738281 20.789063 40.15625 19.863281 38.558594 C 19.238281 37.480469 19 35.691406 19 33 C 19 31.519531 19.085938 30.191406 19.316406 29 L 19.328125 28.96875 C 19.527344 28.003906 19.675781 27.171875 19.933594 26.515625 C 20.09375 26.117188 20.289063 25.746094 20.496094 25.386719 Z M 26.339844 25.949219 C 27.191406 26.632813 28 27.832031 28 29.445313 C 28 30.84375 27.621094 31.6875 27.109375 32.214844 C 26.601563 32.738281 25.894531 33 25 33 C 24.105469 33 23.398438 32.738281 22.886719 32.21875 C 22.375 31.695313 22 30.847656 22 29.445313 C 22 27.835938 22.804688 26.640625 23.65625 25.953125 C 24.078125 25.984375 24.511719 26 24.957031 26 C 25.429688 26 25.890625 25.980469 26.339844 25.949219 Z M 32.453125 27.78125 C 33.214844 28.160156 34.035156 28.660156 34.753906 29.261719 C 36.054688 30.347656 36.960938 31.671875 36.960938 33 C 36.960938 33.128906 36.847656 33.371094 36.527344 33.609375 C 36.203125 33.84375 35.726563 34 35.414063 34 C 34.785156 34 34.324219 33.53125 34.324219 33 C 34.324219 31.066406 33.390625 29.460938 32.59375 28.257813 L 32.578125 28.265625 C 32.539063 28.101563 32.496094 27.941406 32.453125 27.78125 Z M 17.25 28.117188 C 17.226563 28.234375 17.183594 28.339844 17.15625 28.457031 C 16.382813 29.65625 15.59375 31.183594 15.59375 33 C 15.59375 33.53125 15.132813 34 14.503906 34 C 14.191406 34 13.714844 33.84375 13.394531 33.609375 C 13.074219 33.371094 12.960938 33.128906 12.960938 33 C 12.960938 31.671875 13.863281 30.347656 15.160156 29.261719 C 15.851563 28.683594 16.515625 28.496094 17.25 28.117188 Z M 18.464844 40.054688 C 19.335938 41.308594 20.5 42.109375 21.808594 42.546875 C 21.914063 42.902344 21.984375 43.21875 21.992188 43.402344 C 21.984375 43.402344 21.992188 43.394531 21.984375 43.402344 C 21.886719 43.472656 21.613281 43.605469 21.210938 43.703125 C 20.40625 43.902344 19.136719 44 17.734375 44 C 16.183594 44 15.414063 43.75 15.160156 43.59375 C 14.910156 43.433594 15 43.496094 15 43.339844 C 15 43.398438 15.03125 43.101563 15.152344 42.78125 C 15.273438 42.457031 15.46875 42.0625 15.746094 41.6875 C 16.296875 40.933594 17.121094 40.246094 18.464844 40.054688 Z M 31.4375 40.054688 C 32.78125 40.246094 33.636719 40.941406 34.214844 41.699219 C 34.503906 42.082031 34.710938 42.476563 34.839844 42.796875 C 34.96875 43.117188 35 43.421875 35 43.339844 C 35 43.492188 35.089844 43.433594 34.839844 43.589844 C 34.585938 43.746094 33.8125 44 32.261719 44 C 30.859375 44 29.589844 43.902344 28.789063 43.703125 C 28.386719 43.605469 28.113281 43.472656 28.015625 43.402344 C 28.007813 43.394531 28.015625 43.402344 28.007813 43.402344 C 28.015625 43.210938 28.085938 42.886719 28.199219 42.511719 C 29.46875 42.066406 30.589844 41.273438 31.4375 40.054688 Z"/></svg>